PathFileType	4	(X/Y/Z)	./resultDataOpenSim/trcMotMarkerGrf/sub09/qtm-01-02.trc
DataRate	CameraRate	NumFrames	NumMarkers	Units	OrigDataRate	OrigDataStartFrame	OrigNumFrames
250.000000	250.000000	8	24	m	250.000000	124	495
Frame#	Time	L.Toe.Tip			R.Toe.Tip			L.Ankle.Lat			R.Ankle.Lat			L.Ankle.Med			R.Ankle.Med			L.Heel			R.Heel			L.Knee.Lat			R.Knee.Lat			L.Knee.Med			R.Knee.Med			L.Thigh.Upper			R.Thigh.Upper			L.ASIS			R.ASIS			V.Sacral			L.Acromium			R.Acromium			C7			L.Elbow			R.Elbow			L.Wrist.Lat			R.Wrist.Lat
		X1	Y1	Z1	X2	Y2	Z2	X3	Y3	Z3	X4	Y4	Z4	X5	Y5	Z5	X6	Y6	Z6	X7	Y7	Z7	X8	Y8	Z8	X9	Y9	Z9	X10	Y10	Z10	X11	Y11	Z11	X12	Y12	Z12	X13	Y13	Z13	X14	Y14	Z14	X15	Y15	Z15	X16	Y16	Z16	X17	Y17	Z17	X18	Y18	Z18	X19	Y19	Z19	X20	Y20	Z20	X21	Y21	Z21	X22	Y22	Z22	X23	Y23	Z23	X24	Y24	Z24

124	0.492	-0.34029922	0.080217454	0.014324659	-0.66439708	0.0406463	0.13583057	-0.49007734	0.10952558	-0.013394477	-0.81269218	0.057542508	0.16409468	-0.46275013	0.12589831	0.080223467	-0.79779413	0.097479753	0.074997015	-0.55460302	0.066652174	0.039510245	-0.8785297	0.036671659	0.11046522	-0.44875522	0.52580906	-0.044868768	-0.69431615	0.50463694	0.23285834	-0.44926348	0.51998271	0.080273067	-0.70818738	0.49387941	0.10477637	-0.63819461	0.89859064	-0.085778851	-0.69192037	0.91060042	0.28283886	-0.57350637	0.98533244	-0.01869505	-0.58548039	0.99084211	0.22049236	-0.74430266	1.0435769	0.08824693	-0.58103742	1.4364571	-0.073522326	-0.59911911	1.4508988	0.25565117	-0.65639274	1.4948178	0.090071393	-0.74612059	1.1059844	-0.12265811	-0.70501619	1.0961589	0.35324245	-0.62397367	0.87132458	-0.14884935	-0.4942473	0.91579167	0.33438792
125	0.496	-0.32096619	0.081694831	0.014680695	-0.66434645	0.040566555	0.1359058	-0.47157285	0.10753053	-0.01319442	-0.81268166	0.057632417	0.16365728	-0.44483297	0.12474988	0.080582972	-0.79751608	0.097374333	0.074564234	-0.53494532	0.063338926	0.039625184	-0.87846585	0.036785772	0.10993801	-0.44192661	0.52495432	-0.044895356	-0.69238265	0.50418091	0.23254084	-0.4422226	0.51911873	0.080230491	-0.70650527	0.49367751	0.10463869	-0.63144559	0.89765261	-0.085675975	-0.68819228	0.9100346	0.28355067	-0.56715551	0.98437978	-0.01841155	-0.57989975	0.99014694	0.22081112	-0.73823189	1.0426628	0.087875336	-0.57528008	1.4356712	-0.073596694	-0.59390017	1.450182	0.25561324	-0.65090702	1.4939838	0.08990908	-0.74060784	1.1054247	-0.12268034	-0.69919584	1.0951267	0.35331152	-0.61963756	0.87033309	-0.14915258	-0.48725896	0.91608871	0.33396212
126	0.5	-0.30175811	0.083395743	0.015083175	-0.66426989	0.040484118	0.13596257	-0.45309315	0.10576169	-0.01302685	-0.81265916	0.057729296	0.16318435	-0.4269581	0.12379634	0.080872439	-0.7972175	0.097253143	0.07407604	-0.51542423	0.060322837	0.039631311	-0.8783845	0.036904192	0.10936459	-0.43518775	0.52397041	-0.044997697	-0.69106993	0.50388417	0.23239932	-0.43534668	0.51812792	0.080110432	-0.70476734	0.49347149	0.10447865	-0.6248787	0.89660319	-0.085576964	-0.68389615	0.90947533	0.283786	-0.56078305	0.98335141	-0.018134916	-0.57431244	0.98938376	0.22113656	-0.73228017	1.0416324	0.08721547	-0.5694867	1.4348055	-0.073673755	-0.58866922	1.4493819	0.25556623	-0.64537865	1.4930664	0.089726161	-0.7350427	1.1047815	-0.12271582	-0.69339535	1.0940129	0.35338999	-0.61514818	0.86931895	-0.14944281	-0.48029782	0.91629982	0.33352937
127	0.504	-0.28270535	0.08532315	0.015546897	-0.6641654	0.040395662	0.1360022	-0.43467621	0.10423191	-0.012908609	-0.81262741	0.057826826	0.16268543	-0.40917498	0.12305447	0.081095991	-0.79689773	0.097117061	0.073526433	-0.49596852	0.05756346	0.039634918	-0.87828731	0.037024231	0.10875296	-0.42855839	0.52287332	-0.045209468	-0.69018621	0.50373249	0.23240108	-0.42854475	0.51703973	0.079954792	-0.70298213	0.49325096	0.10428627	-0.61857523	0.89543284	-0.085492581	-0.67923551	0.90887536	0.28368775	-0.55438669	0.98224774	-0.017859837	-0.56871601	0.9885475	0.22146577	-0.72659129	1.0404437	0.086074562	-0.56364792	1.4338477	-0.073737943	-0.58343713	1.4484999	0.25550566	-0.63982178	1.4920718	0.089534506	-0.72944457	1.1040679	-0.12278885	-0.68761096	1.0928223	0.35347829	-0.61052911	0.868257	-0.14971347	-0.47335857	0.91642148	0.33309352
128	0.508	-0.26382836	0.087475161	0.01609733	-0.66403953	0.040292179	0.13602359	-0.41635115	0.1029542	-0.012836998	-0.81258297	0.057929515	0.16214968	-0.39154427	0.1225513	0.081301042	-0.79655962	0.096966251	0.072926814	-0.47655497	0.055069656	0.039630158	-0.87818001	0.03714467	0.10811366	-0.42203804	0.52166211	-0.045505819	-0.6893026	0.50357665	0.23242039	-0.42171641	0.51588299	0.079824697	-0.70114465	0.49299747	0.10406156	-0.61241625	0.89415547	-0.085426293	-0.67444618	0.90819785	0.28345126	-0.54797931	0.98106854	-0.017575539	-0.56309975	0.98764701	0.22179165	-0.72117706	1.0391286	0.084569988	-0.55777191	1.4328037	-0.073794042	-0.57820588	1.4475411	0.2554289	-0.63424716	1.4910099	0.089345873	-0.72382224	1.1032937	-0.12290146	-0.68182346	1.0915613	0.35356712	-0.60586351	0.867095	-0.14997086	-0.46643199	0.91645247	0.33266018
129	0.512	-0.2451413	0.089851786	0.016764453	-0.66390272	0.040170151	0.1360263	-0.39812503	0.10192955	-0.012782629	-0.81251281	0.058065075	0.16158109	-0.37409875	0.12231579	0.08154696	-0.79620763	0.096801659	0.072297547	-0.45721727	0.052859608	0.039582044	-0.87806708	0.037262884	0.10745207	-0.4155895	0.52034174	-0.045838616	-0.68827469	0.50329296	0.23235298	-0.41478189	0.51467905	0.079781855	-0.69922503	0.49269885	0.103811	-0.60625931	0.89279049	-0.085377798	-0.66961258	0.90744043	0.2832004	-0.54157823	0.97981793	-0.017275302	-0.55745907	0.98668864	0.22211152	-0.7158394	1.0377681	0.083128515	-0.55187271	1.431684	-0.073855005	-0.57296449	1.4465089	0.25534147	-0.62866066	1.4898806	0.089158967	-0.71816558	1.1024551	-0.12303861	-0.67605163	1.0902389	0.35366664	-0.60121374	0.86581261	-0.15023002	-0.45952177	0.91639535	0.33223378
130	0.516	-0.22666707	0.092456805	0.017574196	-0.66376616	0.04005014	0.13601639	-0.38000624	0.10115855	-0.012712892	-0.81240248	0.05826406	0.16100418	-0.35685127	0.12236661	0.081865379	-0.79584591	0.096627097	0.071657327	-0.43801022	0.050938252	0.039486052	-0.87795606	0.037374947	0.10677023	-0.40917168	0.51893132	-0.046174326	-0.68742552	0.50300762	0.23229357	-0.40776809	0.51341727	0.079840217	-0.69718068	0.49234812	0.10354638	-0.60004399	0.8913546	-0.085334156	-0.66473902	0.9066258	0.28301255	-0.53518771	0.97849945	-0.016963425	-0.55180092	0.98566641	0.22242596	-0.71037225	1.0363902	0.082070073	-0.54596547	1.4304951	-0.073927443	-0.56770255	1.4454043	0.25525632	-0.62306487	1.4886814	0.08896403	-0.71246051	1.1015419	-0.12318887	-0.67034069	1.0888629	0.3538004	-0.59657829	0.86443579	-0.1505018	-0.45263834	0.91625492	0.33181327
131	0.52	-0.20844448	0.095287359	0.018539277	-0.6636388	0.039972226	0.13600714	-0.36203125	0.10065004	-0.012612904	-0.81225868	0.058508393	0.16043736	-0.33981065	0.122687	0.082223141	-0.79548086	0.096449939	0.071023737	-0.41898549	0.049301805	0.039355771	-0.87785587	0.037481195	0.10607451	-0.40275019	0.51744382	-0.046486572	-0.68700946	0.50294282	0.23239776	-0.40085415	0.51204186	0.079929109	-0.69497887	0.49193829	0.10328791	-0.59377465	0.8898562	-0.085276327	-0.65982272	0.9057659	0.28291867	-0.52879148	0.97711523	-0.016647744	-0.54613832	0.98457139	0.22273723	-0.70475652	1.0349577	0.081364928	-0.54005771	1.4292418	-0.074005677	-0.56241625	1.4442268	0.25517845	-0.61745765	1.4874146	0.088756563	-0.7067012	1.100548	-0.12334846	-0.66467031	1.0874316	0.35395637	-0.59190785	0.86300112	-0.15079003	-0.44578225	0.91603159	0.33139397
